%TF.GenerationSoftware,KiCad,Pcbnew,(6.0.9)*%
%TF.CreationDate,2022-11-25T11:21:21+01:00*%
%TF.ProjectId,stmf303re_eval_board,73746d66-3330-4337-9265-5f6576616c5f,rev?*%
%TF.SameCoordinates,Original*%
%TF.FileFunction,Copper,L1,Top*%
%TF.FilePolarity,Positive*%
%FSLAX46Y46*%
G04 Gerber Fmt 4.6, Leading zero omitted, Abs format (unit mm)*
G04 Created by KiCad (PCBNEW (6.0.9)) date 2022-11-25 11:21:21*
%MOMM*%
%LPD*%
G01*
G04 APERTURE LIST*
G04 Aperture macros list*
%AMRoundRect*
0 Rectangle with rounded corners*
0 $1 Rounding radius*
0 $2 $3 $4 $5 $6 $7 $8 $9 X,Y pos of 4 corners*
0 Add a 4 corners polygon primitive as box body*
4,1,4,$2,$3,$4,$5,$6,$7,$8,$9,$2,$3,0*
0 Add four circle primitives for the rounded corners*
1,1,$1+$1,$2,$3*
1,1,$1+$1,$4,$5*
1,1,$1+$1,$6,$7*
1,1,$1+$1,$8,$9*
0 Add four rect primitives between the rounded corners*
20,1,$1+$1,$2,$3,$4,$5,0*
20,1,$1+$1,$4,$5,$6,$7,0*
20,1,$1+$1,$6,$7,$8,$9,0*
20,1,$1+$1,$8,$9,$2,$3,0*%
%AMFreePoly0*
4,1,22,0.500000,-0.750000,0.000000,-0.750000,0.000000,-0.745033,-0.079941,-0.743568,-0.215256,-0.701293,-0.333266,-0.622738,-0.424486,-0.514219,-0.481581,-0.384460,-0.499164,-0.250000,-0.500000,-0.250000,-0.500000,0.250000,-0.499164,0.250000,-0.499963,0.256109,-0.478152,0.396186,-0.417904,0.524511,-0.324060,0.630769,-0.204165,0.706417,-0.067858,0.745374,0.000000,0.744959,0.000000,0.750000,
0.500000,0.750000,0.500000,-0.750000,0.500000,-0.750000,$1*%
%AMFreePoly1*
4,1,20,0.000000,0.744959,0.073905,0.744508,0.209726,0.703889,0.328688,0.626782,0.421226,0.519385,0.479903,0.390333,0.500000,0.250000,0.500000,-0.250000,0.499851,-0.262216,0.476331,-0.402017,0.414519,-0.529596,0.319384,-0.634700,0.198574,-0.708877,0.061801,-0.746166,0.000000,-0.745033,0.000000,-0.750000,-0.500000,-0.750000,-0.500000,0.750000,0.000000,0.750000,0.000000,0.744959,
0.000000,0.744959,$1*%
G04 Aperture macros list end*
%TA.AperFunction,SMDPad,CuDef*%
%ADD10R,2.500000X1.900000*%
%TD*%
%TA.AperFunction,ComponentPad*%
%ADD11R,1.700000X1.700000*%
%TD*%
%TA.AperFunction,ComponentPad*%
%ADD12O,1.700000X1.700000*%
%TD*%
%TA.AperFunction,SMDPad,CuDef*%
%ADD13RoundRect,0.140000X0.140000X0.170000X-0.140000X0.170000X-0.140000X-0.170000X0.140000X-0.170000X0*%
%TD*%
%TA.AperFunction,SMDPad,CuDef*%
%ADD14RoundRect,0.225000X0.250000X-0.225000X0.250000X0.225000X-0.250000X0.225000X-0.250000X-0.225000X0*%
%TD*%
%TA.AperFunction,SMDPad,CuDef*%
%ADD15RoundRect,0.225000X-0.225000X-0.250000X0.225000X-0.250000X0.225000X0.250000X-0.225000X0.250000X0*%
%TD*%
%TA.AperFunction,SMDPad,CuDef*%
%ADD16RoundRect,0.140000X-0.170000X0.140000X-0.170000X-0.140000X0.170000X-0.140000X0.170000X0.140000X0*%
%TD*%
%TA.AperFunction,SMDPad,CuDef*%
%ADD17RoundRect,0.200000X0.200000X0.275000X-0.200000X0.275000X-0.200000X-0.275000X0.200000X-0.275000X0*%
%TD*%
%TA.AperFunction,SMDPad,CuDef*%
%ADD18RoundRect,0.200000X-0.275000X0.200000X-0.275000X-0.200000X0.275000X-0.200000X0.275000X0.200000X0*%
%TD*%
%TA.AperFunction,SMDPad,CuDef*%
%ADD19RoundRect,0.140000X0.170000X-0.140000X0.170000X0.140000X-0.170000X0.140000X-0.170000X-0.140000X0*%
%TD*%
%TA.AperFunction,SMDPad,CuDef*%
%ADD20FreePoly0,180.000000*%
%TD*%
%TA.AperFunction,SMDPad,CuDef*%
%ADD21FreePoly1,180.000000*%
%TD*%
%TA.AperFunction,SMDPad,CuDef*%
%ADD22RoundRect,0.200000X-0.200000X-0.275000X0.200000X-0.275000X0.200000X0.275000X-0.200000X0.275000X0*%
%TD*%
%TA.AperFunction,SMDPad,CuDef*%
%ADD23RoundRect,0.243750X0.243750X0.456250X-0.243750X0.456250X-0.243750X-0.456250X0.243750X-0.456250X0*%
%TD*%
%TA.AperFunction,SMDPad,CuDef*%
%ADD24RoundRect,0.225000X0.225000X0.250000X-0.225000X0.250000X-0.225000X-0.250000X0.225000X-0.250000X0*%
%TD*%
%TA.AperFunction,SMDPad,CuDef*%
%ADD25RoundRect,0.140000X-0.140000X-0.170000X0.140000X-0.170000X0.140000X0.170000X-0.140000X0.170000X0*%
%TD*%
%TA.AperFunction,SMDPad,CuDef*%
%ADD26R,1.380000X0.450000*%
%TD*%
%TA.AperFunction,SMDPad,CuDef*%
%ADD27R,1.900000X1.800000*%
%TD*%
%TA.AperFunction,SMDPad,CuDef*%
%ADD28R,1.300000X1.650000*%
%TD*%
%TA.AperFunction,SMDPad,CuDef*%
%ADD29R,1.550000X1.425000*%
%TD*%
%TA.AperFunction,SMDPad,CuDef*%
%ADD30R,1.900000X1.000000*%
%TD*%
%TA.AperFunction,SMDPad,CuDef*%
%ADD31RoundRect,0.218750X-0.381250X0.218750X-0.381250X-0.218750X0.381250X-0.218750X0.381250X0.218750X0*%
%TD*%
%TA.AperFunction,SMDPad,CuDef*%
%ADD32RoundRect,0.150000X0.150000X-0.587500X0.150000X0.587500X-0.150000X0.587500X-0.150000X-0.587500X0*%
%TD*%
%TA.AperFunction,SMDPad,CuDef*%
%ADD33RoundRect,0.075000X-0.700000X-0.075000X0.700000X-0.075000X0.700000X0.075000X-0.700000X0.075000X0*%
%TD*%
%TA.AperFunction,SMDPad,CuDef*%
%ADD34RoundRect,0.075000X-0.075000X-0.700000X0.075000X-0.700000X0.075000X0.700000X-0.075000X0.700000X0*%
%TD*%
%TA.AperFunction,SMDPad,CuDef*%
%ADD35RoundRect,0.243750X-0.456250X0.243750X-0.456250X-0.243750X0.456250X-0.243750X0.456250X0.243750X0*%
%TD*%
%TA.AperFunction,SMDPad,CuDef*%
%ADD36RoundRect,0.225000X-0.250000X0.225000X-0.250000X-0.225000X0.250000X-0.225000X0.250000X0.225000X0*%
%TD*%
%TA.AperFunction,SMDPad,CuDef*%
%ADD37R,1.500000X1.500000*%
%TD*%
%TA.AperFunction,SMDPad,CuDef*%
%ADD38RoundRect,0.147500X0.172500X-0.147500X0.172500X0.147500X-0.172500X0.147500X-0.172500X-0.147500X0*%
%TD*%
%TA.AperFunction,ViaPad*%
%ADD39C,0.800000*%
%TD*%
%TA.AperFunction,Conductor*%
%ADD40C,0.250000*%
%TD*%
%TA.AperFunction,Conductor*%
%ADD41C,0.300000*%
%TD*%
G04 APERTURE END LIST*
D10*
%TO.P,Y1,1,1*%
%TO.N,Net-(C10-Pad1)*%
X139700000Y-76540000D03*
%TO.P,Y1,2,2*%
%TO.N,Net-(C11-Pad1)*%
X139700000Y-80940000D03*
%TD*%
D11*
%TO.P,J4,1,Pin_1*%
%TO.N,+3.3V*%
X171196000Y-60706000D03*
D12*
%TO.P,J4,2,Pin_2*%
%TO.N,GND*%
X168656000Y-60706000D03*
%TO.P,J4,3,Pin_3*%
%TO.N,PA15*%
X166116000Y-60706000D03*
%TO.P,J4,4,Pin_4*%
%TO.N,PC10*%
X163576000Y-60706000D03*
%TO.P,J4,5,Pin_5*%
%TO.N,PC11*%
X161036000Y-60706000D03*
%TO.P,J4,6,Pin_6*%
%TO.N,PC12*%
X158496000Y-60706000D03*
%TO.P,J4,7,Pin_7*%
%TO.N,PB3*%
X155956000Y-60706000D03*
%TO.P,J4,8,Pin_8*%
%TO.N,PB4*%
X153416000Y-60706000D03*
%TO.P,J4,9,Pin_9*%
%TO.N,PB5*%
X150876000Y-60706000D03*
%TO.P,J4,10,Pin_10*%
%TO.N,PB6*%
X148336000Y-60706000D03*
%TO.P,J4,11,Pin_11*%
%TO.N,PB7*%
X145796000Y-60706000D03*
%TO.P,J4,12,Pin_12*%
%TO.N,+3.3V*%
X143256000Y-60706000D03*
%TO.P,J4,13,Pin_13*%
%TO.N,GND*%
X140716000Y-60706000D03*
%TO.P,J4,14,Pin_14*%
%TO.N,PC13*%
X138176000Y-60706000D03*
%TO.P,J4,15,Pin_15*%
%TO.N,PC14*%
X135636000Y-60706000D03*
%TO.P,J4,16,Pin_16*%
%TO.N,PC15*%
X133096000Y-60706000D03*
%TD*%
D11*
%TO.P,J3,1,Pin_1*%
%TO.N,+3.3V*%
X171196000Y-93472000D03*
D12*
%TO.P,J3,2,Pin_2*%
%TO.N,GND*%
X168656000Y-93472000D03*
%TO.P,J3,3,Pin_3*%
%TO.N,PB13*%
X166116000Y-93472000D03*
%TO.P,J3,4,Pin_4*%
%TO.N,PB12*%
X163576000Y-93472000D03*
%TO.P,J3,5,Pin_5*%
%TO.N,PB11*%
X161036000Y-93472000D03*
%TO.P,J3,6,Pin_6*%
%TO.N,PB10*%
X158496000Y-93472000D03*
%TO.P,J3,7,Pin_7*%
%TO.N,PB2*%
X155956000Y-93472000D03*
%TO.P,J3,8,Pin_8*%
%TO.N,PB1*%
X153416000Y-93472000D03*
%TO.P,J3,9,Pin_9*%
%TO.N,PB0*%
X150876000Y-93472000D03*
%TO.P,J3,10,Pin_10*%
%TO.N,PC5*%
X148336000Y-93472000D03*
%TO.P,J3,11,Pin_11*%
%TO.N,PC4*%
X145796000Y-93472000D03*
%TO.P,J3,12,Pin_12*%
%TO.N,PA7*%
X143256000Y-93472000D03*
%TO.P,J3,13,Pin_13*%
%TO.N,PA6*%
X140716000Y-93472000D03*
%TO.P,J3,14,Pin_14*%
%TO.N,PA5*%
X138176000Y-93472000D03*
%TO.P,J3,15,Pin_15*%
%TO.N,PA4*%
X135636000Y-93472000D03*
%TO.P,J3,16,Pin_16*%
%TO.N,PA3*%
X133096000Y-93472000D03*
%TD*%
D13*
%TO.P,C10,1*%
%TO.N,Net-(C10-Pad1)*%
X139717258Y-74784204D03*
%TO.P,C10,2*%
%TO.N,GND*%
X138757258Y-74784204D03*
%TD*%
D14*
%TO.P,C5,1*%
%TO.N,+3.3VA*%
X143002000Y-83712500D03*
%TO.P,C5,2*%
%TO.N,GND*%
X143002000Y-82162500D03*
%TD*%
D15*
%TO.P,C1,1*%
%TO.N,+3.3V*%
X146291000Y-71509933D03*
%TO.P,C1,2*%
%TO.N,GND*%
X147841000Y-71509933D03*
%TD*%
D16*
%TO.P,C2,1*%
%TO.N,+3.3V*%
X158871524Y-76026704D03*
%TO.P,C2,2*%
%TO.N,GND*%
X158871524Y-76986704D03*
%TD*%
D11*
%TO.P,J1,1,Pin_1*%
%TO.N,GND*%
X163576000Y-65532000D03*
D12*
%TO.P,J1,2,Pin_2*%
%TO.N,SWDIO*%
X166116000Y-65532000D03*
%TO.P,J1,3,Pin_3*%
%TO.N,SWCLK*%
X168656000Y-65532000D03*
%TO.P,J1,4,Pin_4*%
%TO.N,+3.3V*%
X171196000Y-65532000D03*
%TD*%
D17*
%TO.P,R2,1*%
%TO.N,GND*%
X146659600Y-65887600D03*
%TO.P,R2,2*%
%TO.N,Net-(JP1-Pad1)*%
X145009600Y-65887600D03*
%TD*%
D18*
%TO.P,R5,1*%
%TO.N,Net-(D2-Pad1)*%
X170688000Y-85725000D03*
%TO.P,R5,2*%
%TO.N,GND*%
X170688000Y-87375000D03*
%TD*%
D19*
%TO.P,C6,1*%
%TO.N,+3.3V*%
X144403118Y-75897878D03*
%TO.P,C6,2*%
%TO.N,GND*%
X144403118Y-74937878D03*
%TD*%
D20*
%TO.P,JP1,1,A*%
%TO.N,Net-(JP1-Pad1)*%
X143042400Y-65836800D03*
D21*
%TO.P,JP1,2,B*%
%TO.N,+3.3V*%
X141742400Y-65836800D03*
%TD*%
D22*
%TO.P,R4,1*%
%TO.N,GND*%
X161544000Y-83058000D03*
%TO.P,R4,2*%
%TO.N,Net-(D1-Pad1)*%
X163194000Y-83058000D03*
%TD*%
D23*
%TO.P,D1,1,K*%
%TO.N,Net-(D1-Pad1)*%
X163306500Y-81026000D03*
%TO.P,D1,2,A*%
%TO.N,Net-(D1-Pad2)*%
X161431500Y-81026000D03*
%TD*%
D24*
%TO.P,C13,1*%
%TO.N,+3.3V*%
X165875000Y-89154000D03*
%TO.P,C13,2*%
%TO.N,GND*%
X164325000Y-89154000D03*
%TD*%
D13*
%TO.P,C8,1*%
%TO.N,+3.3V*%
X155998823Y-87263717D03*
%TO.P,C8,2*%
%TO.N,GND*%
X155038823Y-87263717D03*
%TD*%
D18*
%TO.P,R3,1*%
%TO.N,+3.3V*%
X165313165Y-76801822D03*
%TO.P,R3,2*%
%TO.N,USB_D+*%
X165313165Y-78451822D03*
%TD*%
D13*
%TO.P,C11,1*%
%TO.N,Net-(C11-Pad1)*%
X139699140Y-82681118D03*
%TO.P,C11,2*%
%TO.N,GND*%
X138739140Y-82681118D03*
%TD*%
%TO.P,C3,1*%
%TO.N,+3.3V*%
X148206400Y-87477600D03*
%TO.P,C3,2*%
%TO.N,GND*%
X147246400Y-87477600D03*
%TD*%
D25*
%TO.P,C4,1*%
%TO.N,NRST*%
X134902000Y-85852000D03*
%TO.P,C4,2*%
%TO.N,GND*%
X135862000Y-85852000D03*
%TD*%
D26*
%TO.P,J2,1,VBUS*%
%TO.N,+5V*%
X169082600Y-80045000D03*
%TO.P,J2,2,D-*%
%TO.N,USB_D-*%
X169082600Y-79395000D03*
%TO.P,J2,3,D+*%
%TO.N,USB_D+*%
X169082600Y-78745000D03*
%TO.P,J2,4,ID*%
%TO.N,unconnected-(J2-Pad4)*%
X169082600Y-78095000D03*
%TO.P,J2,5,GND*%
%TO.N,GND*%
X169082600Y-77445000D03*
D27*
%TO.P,J2,6,Shield*%
%TO.N,unconnected-(J2-Pad6)*%
X171742600Y-79895000D03*
D28*
X171742600Y-82120000D03*
X171742600Y-75370000D03*
D29*
X169167600Y-76257500D03*
D30*
X171742600Y-77195000D03*
D29*
X169167600Y-81232500D03*
%TD*%
D31*
%TO.P,FB1,1*%
%TO.N,+5V*%
X165100000Y-81280000D03*
%TO.P,FB1,2*%
%TO.N,Net-(C12-Pad1)*%
X165100000Y-83405000D03*
%TD*%
D25*
%TO.P,C9,1*%
%TO.N,+3.3V*%
X147141269Y-72770023D03*
%TO.P,C9,2*%
%TO.N,GND*%
X148101269Y-72770023D03*
%TD*%
D32*
%TO.P,U2,1,GND*%
%TO.N,GND*%
X164150000Y-87297500D03*
%TO.P,U2,2,VO*%
%TO.N,+3.3V*%
X166050000Y-87297500D03*
%TO.P,U2,3,VI*%
%TO.N,Net-(C12-Pad1)*%
X165100000Y-85422500D03*
%TD*%
D33*
%TO.P,U1,1,VBAT*%
%TO.N,+3.3V*%
X145963000Y-76260000D03*
%TO.P,U1,2,PC13*%
%TO.N,PC13*%
X145963000Y-76760000D03*
%TO.P,U1,3,PC14*%
%TO.N,PC14*%
X145963000Y-77260000D03*
%TO.P,U1,4,PC15*%
%TO.N,PC15*%
X145963000Y-77760000D03*
%TO.P,U1,5,PF0*%
%TO.N,Net-(C10-Pad1)*%
X145963000Y-78260000D03*
%TO.P,U1,6,PF1*%
%TO.N,Net-(C11-Pad1)*%
X145963000Y-78760000D03*
%TO.P,U1,7,NRST*%
%TO.N,NRST*%
X145963000Y-79260000D03*
%TO.P,U1,8,PC0*%
%TO.N,unconnected-(U1-Pad8)*%
X145963000Y-79760000D03*
%TO.P,U1,9,PC1*%
%TO.N,unconnected-(U1-Pad9)*%
X145963000Y-80260000D03*
%TO.P,U1,10,PC2*%
%TO.N,unconnected-(U1-Pad10)*%
X145963000Y-80760000D03*
%TO.P,U1,11,PC3*%
%TO.N,unconnected-(U1-Pad11)*%
X145963000Y-81260000D03*
%TO.P,U1,12,VSSA*%
%TO.N,GND*%
X145963000Y-81760000D03*
%TO.P,U1,13,VDDA*%
%TO.N,+3.3VA*%
X145963000Y-82260000D03*
%TO.P,U1,14,PA0*%
%TO.N,unconnected-(U1-Pad14)*%
X145963000Y-82760000D03*
%TO.P,U1,15,PA1*%
%TO.N,unconnected-(U1-Pad15)*%
X145963000Y-83260000D03*
%TO.P,U1,16,PA2*%
%TO.N,unconnected-(U1-Pad16)*%
X145963000Y-83760000D03*
D34*
%TO.P,U1,17,PA3*%
%TO.N,PA3*%
X147888000Y-85685000D03*
%TO.P,U1,18,VSS*%
%TO.N,GND*%
X148388000Y-85685000D03*
%TO.P,U1,19,VDD*%
%TO.N,+3.3V*%
X148888000Y-85685000D03*
%TO.P,U1,20,PA4*%
%TO.N,PA4*%
X149388000Y-85685000D03*
%TO.P,U1,21,PA5*%
%TO.N,PA5*%
X149888000Y-85685000D03*
%TO.P,U1,22,PA6*%
%TO.N,PA6*%
X150388000Y-85685000D03*
%TO.P,U1,23,PA7*%
%TO.N,PA7*%
X150888000Y-85685000D03*
%TO.P,U1,24,PC4*%
%TO.N,PC4*%
X151388000Y-85685000D03*
%TO.P,U1,25,PC5*%
%TO.N,PC5*%
X151888000Y-85685000D03*
%TO.P,U1,26,PB0*%
%TO.N,PB0*%
X152388000Y-85685000D03*
%TO.P,U1,27,PB1*%
%TO.N,PB1*%
X152888000Y-85685000D03*
%TO.P,U1,28,PB2*%
%TO.N,PB2*%
X153388000Y-85685000D03*
%TO.P,U1,29,PB10*%
%TO.N,PB10*%
X153888000Y-85685000D03*
%TO.P,U1,30,PB11*%
%TO.N,PB11*%
X154388000Y-85685000D03*
%TO.P,U1,31,VSS*%
%TO.N,GND*%
X154888000Y-85685000D03*
%TO.P,U1,32,VDD*%
%TO.N,+3.3V*%
X155388000Y-85685000D03*
D33*
%TO.P,U1,33,PB12*%
%TO.N,PB12*%
X157313000Y-83760000D03*
%TO.P,U1,34,PB13*%
%TO.N,PB13*%
X157313000Y-83260000D03*
%TO.P,U1,35,PB14*%
%TO.N,unconnected-(U1-Pad35)*%
X157313000Y-82760000D03*
%TO.P,U1,36,PB15*%
%TO.N,unconnected-(U1-Pad36)*%
X157313000Y-82260000D03*
%TO.P,U1,37,PC6*%
%TO.N,unconnected-(U1-Pad37)*%
X157313000Y-81760000D03*
%TO.P,U1,38,PC7*%
%TO.N,unconnected-(U1-Pad38)*%
X157313000Y-81260000D03*
%TO.P,U1,39,PC8*%
%TO.N,Net-(D1-Pad2)*%
X157313000Y-80760000D03*
%TO.P,U1,40,PC9*%
%TO.N,unconnected-(U1-Pad40)*%
X157313000Y-80260000D03*
%TO.P,U1,41,PA8*%
%TO.N,unconnected-(U1-Pad41)*%
X157313000Y-79760000D03*
%TO.P,U1,42,PA9*%
%TO.N,unconnected-(U1-Pad42)*%
X157313000Y-79260000D03*
%TO.P,U1,43,PA10*%
%TO.N,unconnected-(U1-Pad43)*%
X157313000Y-78760000D03*
%TO.P,U1,44,PA11*%
%TO.N,USB_D-*%
X157313000Y-78260000D03*
%TO.P,U1,45,PA12*%
%TO.N,USB_D+*%
X157313000Y-77760000D03*
%TO.P,U1,46,PA13*%
%TO.N,SWDIO*%
X157313000Y-77260000D03*
%TO.P,U1,47,VSS*%
%TO.N,GND*%
X157313000Y-76760000D03*
%TO.P,U1,48,VDD*%
%TO.N,+3.3V*%
X157313000Y-76260000D03*
D34*
%TO.P,U1,49,PA14*%
%TO.N,SWCLK*%
X155388000Y-74335000D03*
%TO.P,U1,50,PA15*%
%TO.N,PA15*%
X154888000Y-74335000D03*
%TO.P,U1,51,PC10*%
%TO.N,PC10*%
X154388000Y-74335000D03*
%TO.P,U1,52,PC11*%
%TO.N,PC11*%
X153888000Y-74335000D03*
%TO.P,U1,53,PC12*%
%TO.N,PC12*%
X153388000Y-74335000D03*
%TO.P,U1,54,PD2*%
%TO.N,unconnected-(U1-Pad54)*%
X152888000Y-74335000D03*
%TO.P,U1,55,PB3*%
%TO.N,PB3*%
X152388000Y-74335000D03*
%TO.P,U1,56,PB4*%
%TO.N,PB4*%
X151888000Y-74335000D03*
%TO.P,U1,57,PB5*%
%TO.N,PB5*%
X151388000Y-74335000D03*
%TO.P,U1,58,PB6*%
%TO.N,PB6*%
X150888000Y-74335000D03*
%TO.P,U1,59,PB7*%
%TO.N,PB7*%
X150388000Y-74335000D03*
%TO.P,U1,60,BOOT0*%
%TO.N,Net-(JP1-Pad1)*%
X149888000Y-74335000D03*
%TO.P,U1,61,PB8*%
%TO.N,unconnected-(U1-Pad61)*%
X149388000Y-74335000D03*
%TO.P,U1,62,PB9*%
%TO.N,unconnected-(U1-Pad62)*%
X148888000Y-74335000D03*
%TO.P,U1,63,VSS*%
%TO.N,GND*%
X148388000Y-74335000D03*
%TO.P,U1,64,VDD*%
%TO.N,+3.3V*%
X147888000Y-74335000D03*
%TD*%
D35*
%TO.P,D2,1,K*%
%TO.N,Net-(D2-Pad1)*%
X168656000Y-85676500D03*
%TO.P,D2,2,A*%
%TO.N,+3.3V*%
X168656000Y-87551500D03*
%TD*%
D19*
%TO.P,C7,1*%
%TO.N,+3.3VA*%
X144272000Y-83030000D03*
%TO.P,C7,2*%
%TO.N,GND*%
X144272000Y-82070000D03*
%TD*%
D36*
%TO.P,C12,1*%
%TO.N,Net-(C12-Pad1)*%
X162560000Y-85585000D03*
%TO.P,C12,2*%
%TO.N,GND*%
X162560000Y-87135000D03*
%TD*%
D22*
%TO.P,R1,1*%
%TO.N,NRST*%
X134557000Y-84582000D03*
%TO.P,R1,2*%
%TO.N,+3.3V*%
X136207000Y-84582000D03*
%TD*%
D37*
%TO.P,SW1,1,A*%
%TO.N,GND*%
X134620000Y-74840000D03*
%TO.P,SW1,2,B*%
%TO.N,NRST*%
X134620000Y-82640000D03*
%TD*%
D38*
%TO.P,L1,1,1*%
%TO.N,+3.3V*%
X143002000Y-85962500D03*
%TO.P,L1,2,2*%
%TO.N,+3.3VA*%
X143002000Y-84992500D03*
%TD*%
D39*
%TO.N,GND*%
X147247414Y-88199778D03*
X138051762Y-82671665D03*
X159595504Y-76988982D03*
X167571171Y-77435544D03*
X145135683Y-74931077D03*
X146659600Y-64973200D03*
X135878318Y-86565713D03*
X160737814Y-83058000D03*
X136019350Y-74840000D03*
X148800787Y-72723271D03*
X144186485Y-81350354D03*
X155325496Y-87970288D03*
X138763236Y-74058861D03*
%TD*%
D40*
%TO.N,Net-(C11-Pad1)*%
X139699140Y-82681118D02*
X139699140Y-80940860D01*
X139699140Y-80940860D02*
X139700000Y-80940000D01*
%TO.N,GND*%
X138051762Y-82671665D02*
X138729687Y-82671665D01*
X138729687Y-82671665D02*
X138739140Y-82681118D01*
%TO.N,Net-(C10-Pad1)*%
X139717258Y-74784204D02*
X139717258Y-76522742D01*
X139717258Y-76522742D02*
X139700000Y-76540000D01*
%TO.N,GND*%
X138757258Y-74784204D02*
X138757258Y-74064839D01*
X138757258Y-74064839D02*
X138763236Y-74058861D01*
%TO.N,+3.3V*%
X155998823Y-87263717D02*
X156524774Y-87263717D01*
X156524774Y-87263717D02*
X162236000Y-92974943D01*
X169996000Y-94672000D02*
X171196000Y-93472000D01*
X162236000Y-92974943D02*
X162236000Y-93829057D01*
X162236000Y-93829057D02*
X163078943Y-94672000D01*
X163078943Y-94672000D02*
X169996000Y-94672000D01*
X155388000Y-85685000D02*
X155388000Y-86300000D01*
X155998823Y-86910823D02*
X155998823Y-87263717D01*
X155388000Y-86300000D02*
X155998823Y-86910823D01*
X148888000Y-86796000D02*
X148206400Y-87477600D01*
%TO.N,GND*%
X148388000Y-86525685D02*
X148070585Y-86843100D01*
X148070585Y-86843100D02*
X147548100Y-86843100D01*
X147548100Y-86843100D02*
X147246400Y-87144800D01*
X147246400Y-87144800D02*
X147246400Y-87477600D01*
X147246400Y-87477600D02*
X147246400Y-88198764D01*
X147246400Y-88198764D02*
X147247414Y-88199778D01*
%TO.N,+3.3V*%
X148888000Y-85685000D02*
X148888000Y-86796000D01*
%TO.N,GND*%
X154888000Y-85685000D02*
X154888000Y-87112894D01*
X154888000Y-87112894D02*
X155038823Y-87263717D01*
X155038823Y-87263717D02*
X155038823Y-87683615D01*
X155038823Y-87683615D02*
X155325496Y-87970288D01*
%TO.N,+3.3V*%
X165313165Y-76801822D02*
X165313165Y-75397165D01*
X165313165Y-75397165D02*
X165313165Y-74658837D01*
X158871524Y-76026704D02*
X164683626Y-76026704D01*
X164683626Y-76026704D02*
X165313165Y-75397165D01*
X165313165Y-74658837D02*
X167611001Y-72361001D01*
D41*
%TO.N,GND*%
X157313000Y-76760000D02*
X158644820Y-76760000D01*
X158644820Y-76760000D02*
X158871524Y-76986704D01*
%TO.N,+3.3V*%
X158871524Y-76026704D02*
X158415296Y-76026704D01*
X158415296Y-76026704D02*
X158182000Y-76260000D01*
X158182000Y-76260000D02*
X157313000Y-76260000D01*
%TO.N,GND*%
X159595504Y-76988982D02*
X158873802Y-76988982D01*
X158873802Y-76988982D02*
X158871524Y-76986704D01*
D40*
X145135683Y-74931077D02*
X144409919Y-74931077D01*
X144409919Y-74931077D02*
X144403118Y-74937878D01*
%TO.N,+3.3V*%
X145963000Y-76260000D02*
X144765240Y-76260000D01*
X144765240Y-76260000D02*
X144403118Y-75897878D01*
X170434000Y-83820000D02*
X170434000Y-74422000D01*
X143399500Y-85962500D02*
X145102500Y-84259500D01*
X143002000Y-85962500D02*
X143399500Y-85962500D01*
X145102500Y-84259500D02*
X146982100Y-84259500D01*
X155125500Y-84259500D02*
X155388000Y-84522000D01*
X166050000Y-85664000D02*
X167386000Y-84328000D01*
X142240000Y-67310000D02*
X141742400Y-66812400D01*
D41*
X147141269Y-72973269D02*
X147888000Y-73720000D01*
D40*
X166050000Y-88979000D02*
X165875000Y-89154000D01*
D41*
X145963000Y-76260000D02*
X147260000Y-76260000D01*
D40*
X169672000Y-59182000D02*
X144780000Y-59182000D01*
X166050000Y-87297500D02*
X166050000Y-88979000D01*
X146291000Y-71628000D02*
X146291000Y-70091000D01*
X173228000Y-85090000D02*
X173228000Y-89916000D01*
X147094000Y-72898000D02*
X147094000Y-72431000D01*
X146291000Y-70091000D02*
X143510000Y-67310000D01*
X141742400Y-66812400D02*
X141742400Y-65836800D01*
X171196000Y-68776002D02*
X167611001Y-72361001D01*
X166050000Y-87297500D02*
X166050000Y-85664000D01*
X147591700Y-84259500D02*
X148338541Y-84259500D01*
X167386000Y-84328000D02*
X170434000Y-84328000D01*
X170434000Y-84328000D02*
X171196000Y-84328000D01*
X148888000Y-84808959D02*
X148888000Y-85685000D01*
X169926000Y-84328000D02*
X170434000Y-83820000D01*
X171196000Y-65532000D02*
X171196000Y-60706000D01*
X168402000Y-87297500D02*
X168656000Y-87551500D01*
X144780000Y-59182000D02*
X143256000Y-60706000D01*
X140208000Y-84582000D02*
X141732000Y-86106000D01*
X141742400Y-64302400D02*
X141742400Y-65836800D01*
X166050000Y-87297500D02*
X168402000Y-87297500D01*
X173228000Y-89916000D02*
X171196000Y-91948000D01*
X136207000Y-84582000D02*
X140208000Y-84582000D01*
X171196000Y-65532000D02*
X171196000Y-68776002D01*
X143256000Y-62788800D02*
X141742400Y-64302400D01*
X171196000Y-60706000D02*
X169672000Y-59182000D01*
X168373001Y-72361001D02*
X167611001Y-72361001D01*
X147094000Y-72431000D02*
X146291000Y-71628000D01*
X141732000Y-86106000D02*
X142858500Y-86106000D01*
X172466000Y-84328000D02*
X173228000Y-85090000D01*
X171196000Y-84328000D02*
X172466000Y-84328000D01*
X155388000Y-84522000D02*
X155388000Y-85685000D01*
X143510000Y-67310000D02*
X142240000Y-67310000D01*
X143256000Y-60706000D02*
X143256000Y-62788800D01*
X146982100Y-84259500D02*
X147591700Y-84259500D01*
X171196000Y-91948000D02*
X171196000Y-93472000D01*
X142858500Y-86106000D02*
X143002000Y-85962500D01*
X170434000Y-74422000D02*
X168373001Y-72361001D01*
D41*
X147141269Y-72770023D02*
X147141269Y-72973269D01*
D40*
X148338541Y-84259500D02*
X148888000Y-84808959D01*
D41*
X147888000Y-75632000D02*
X147888000Y-74335000D01*
D40*
X148338541Y-84259500D02*
X155125500Y-84259500D01*
D41*
X147260000Y-76260000D02*
X147888000Y-75632000D01*
D40*
X147094000Y-72940965D02*
X147094000Y-72898000D01*
D41*
X147888000Y-73720000D02*
X147888000Y-74335000D01*
D40*
%TO.N,GND*%
X164150000Y-87297500D02*
X162722500Y-87297500D01*
X135878318Y-86565713D02*
X135878318Y-85868318D01*
X161544000Y-83058000D02*
X161544000Y-86119000D01*
X135878318Y-85868318D02*
X135862000Y-85852000D01*
X144272000Y-82070000D02*
X143094500Y-82070000D01*
X170688000Y-89916000D02*
X170688000Y-87375000D01*
X164150000Y-87297500D02*
X164150000Y-88979000D01*
X146659600Y-64973200D02*
X146659600Y-65887600D01*
X148054000Y-72898000D02*
X148054000Y-72890391D01*
X145963000Y-81760000D02*
X144582000Y-81760000D01*
X136019350Y-74840000D02*
X134620000Y-74840000D01*
X168656000Y-91948000D02*
X170688000Y-89916000D01*
X161544000Y-86119000D02*
X162560000Y-87135000D01*
X148388000Y-85685000D02*
X148388000Y-86525685D01*
X148388000Y-74335000D02*
X148388000Y-73232000D01*
X148054000Y-72898000D02*
X148054000Y-71841000D01*
X144582000Y-81760000D02*
X144272000Y-82070000D01*
X167571171Y-77435544D02*
X167580627Y-77445000D01*
X168656000Y-93472000D02*
X168656000Y-91948000D01*
X164150000Y-88979000D02*
X164325000Y-89154000D01*
X144272000Y-82070000D02*
X144272000Y-81435869D01*
X143094500Y-82070000D02*
X143002000Y-82162500D01*
X161544000Y-83058000D02*
X160737814Y-83058000D01*
X148054000Y-71841000D02*
X147841000Y-71628000D01*
X148228729Y-72723271D02*
X148054000Y-72898000D01*
X167580627Y-77445000D02*
X169082600Y-77445000D01*
X148800787Y-72723271D02*
X148228729Y-72723271D01*
X144272000Y-81435869D02*
X144186485Y-81350354D01*
X162722500Y-87297500D02*
X162560000Y-87135000D01*
X148388000Y-73232000D02*
X148054000Y-72898000D01*
%TO.N,NRST*%
X134557000Y-84836000D02*
X134620000Y-84773000D01*
X134620000Y-84773000D02*
X134620000Y-82640000D01*
X141732000Y-80010000D02*
X141732000Y-82296000D01*
X137668000Y-84074000D02*
X136234000Y-82640000D01*
X145963000Y-79260000D02*
X142482000Y-79260000D01*
X134902000Y-85181000D02*
X134557000Y-84836000D01*
X142482000Y-79260000D02*
X141732000Y-80010000D01*
X134902000Y-85852000D02*
X134902000Y-85181000D01*
X136234000Y-82640000D02*
X134620000Y-82640000D01*
X139954000Y-84074000D02*
X137668000Y-84074000D01*
X141732000Y-82296000D02*
X139954000Y-84074000D01*
%TO.N,+3.3VA*%
X145963000Y-82260000D02*
X145084965Y-82260000D01*
X145084965Y-82260000D02*
X144314965Y-83030000D01*
X144272000Y-83030000D02*
X143684500Y-83030000D01*
X144314965Y-83030000D02*
X144272000Y-83030000D01*
X143002000Y-84992500D02*
X143002000Y-83712500D01*
X143684500Y-83030000D02*
X143002000Y-83712500D01*
%TO.N,Net-(C10-Pad1)*%
X143284000Y-78260000D02*
X141914000Y-76890000D01*
X139672000Y-76862000D02*
X139700000Y-76890000D01*
X141914000Y-76890000D02*
X139700000Y-76890000D01*
X145963000Y-78260000D02*
X143284000Y-78260000D01*
%TO.N,Net-(C11-Pad1)*%
X141530000Y-78760000D02*
X139700000Y-80590000D01*
X139644000Y-80646000D02*
X139700000Y-80590000D01*
X145963000Y-78760000D02*
X141530000Y-78760000D01*
%TO.N,Net-(C12-Pad1)*%
X165100000Y-83405000D02*
X165100000Y-85422500D01*
X162722500Y-85422500D02*
X162560000Y-85585000D01*
X165100000Y-85422500D02*
X162722500Y-85422500D01*
%TO.N,Net-(D1-Pad1)*%
X163306500Y-82945500D02*
X163194000Y-83058000D01*
X163306500Y-81026000D02*
X163306500Y-82945500D01*
%TO.N,Net-(D1-Pad2)*%
X161165500Y-80760000D02*
X161431500Y-81026000D01*
X157313000Y-80760000D02*
X161165500Y-80760000D01*
%TO.N,Net-(D2-Pad1)*%
X170639500Y-85676500D02*
X170688000Y-85725000D01*
X168656000Y-85676500D02*
X170639500Y-85676500D01*
D41*
%TO.N,+5V*%
X166878000Y-81280000D02*
X165100000Y-81280000D01*
X169082600Y-80045000D02*
X168113000Y-80045000D01*
X168113000Y-80045000D02*
X166878000Y-81280000D01*
D40*
%TO.N,SWDIO*%
X157313000Y-77260000D02*
X156152400Y-77260000D01*
X155651200Y-76758800D02*
X155651200Y-75996800D01*
X156152400Y-77260000D02*
X155651200Y-76758800D01*
X155651200Y-75996800D02*
X166116000Y-65532000D01*
%TO.N,SWCLK*%
X162052000Y-63500000D02*
X166624000Y-63500000D01*
X155388000Y-72989606D02*
X161789501Y-66588105D01*
X161789501Y-63762499D02*
X162052000Y-63500000D01*
X155388000Y-74335000D02*
X155388000Y-72989606D01*
X166624000Y-63500000D02*
X168656000Y-65532000D01*
X161789501Y-66588105D02*
X161789501Y-63762499D01*
%TO.N,USB_D-*%
X158217240Y-78309004D02*
X160914600Y-78309002D01*
X161995598Y-79390000D02*
X169077600Y-79390000D01*
X169077600Y-79390000D02*
X169082600Y-79395000D01*
X160914600Y-78309002D02*
X161995598Y-79390000D01*
X158168236Y-78260000D02*
X158217240Y-78309004D01*
X157313000Y-78260000D02*
X158168236Y-78260000D01*
%TO.N,USB_D+*%
X161121501Y-77809501D02*
X162052000Y-78740000D01*
X157313000Y-77760000D02*
X158374633Y-77760000D01*
X158424135Y-77809501D02*
X161121501Y-77809501D01*
X169077600Y-78740000D02*
X169082600Y-78745000D01*
X162052000Y-78740000D02*
X169077600Y-78740000D01*
X158374633Y-77760000D02*
X158424135Y-77809501D01*
%TO.N,PA4*%
X137160000Y-91948000D02*
X135636000Y-93472000D01*
X138882402Y-91948000D02*
X137160000Y-91948000D01*
X149388000Y-85685000D02*
X149388000Y-87340000D01*
X149388000Y-87340000D02*
X147320000Y-89408000D01*
X141422402Y-89408000D02*
X138882402Y-91948000D01*
X147320000Y-89408000D02*
X141422402Y-89408000D01*
%TO.N,PA15*%
X161798000Y-62738000D02*
X165608000Y-62738000D01*
X165608000Y-62738000D02*
X166116000Y-62230000D01*
X161290000Y-66381205D02*
X161290000Y-63246000D01*
X161290000Y-63246000D02*
X161798000Y-62738000D01*
X154888000Y-74335000D02*
X154888000Y-72783205D01*
X166116000Y-62230000D02*
X166116000Y-60706000D01*
X154888000Y-72783205D02*
X161290000Y-66381205D01*
%TO.N,PC15*%
X141986000Y-76047769D02*
X141986000Y-74422000D01*
X141986000Y-74422000D02*
X133096000Y-65532000D01*
X143698231Y-77760000D02*
X141986000Y-76047769D01*
X133096000Y-65532000D02*
X133096000Y-60706000D01*
X145963000Y-77760000D02*
X143698231Y-77760000D01*
%TO.N,PC14*%
X135636000Y-67310000D02*
X135636000Y-60706000D01*
X142494000Y-74168000D02*
X135636000Y-67310000D01*
X145963000Y-77260000D02*
X143904633Y-77260000D01*
X142494000Y-75849367D02*
X142494000Y-74168000D01*
X143904633Y-77260000D02*
X142494000Y-75849367D01*
%TO.N,PC13*%
X144111035Y-76760000D02*
X143002000Y-75650965D01*
X143002000Y-73914000D02*
X138176000Y-69088000D01*
X145963000Y-76760000D02*
X144111035Y-76760000D01*
X143002000Y-75650965D02*
X143002000Y-73914000D01*
X138176000Y-69088000D02*
X138176000Y-60706000D01*
%TO.N,PC12*%
X153388000Y-72164000D02*
X158496000Y-67056000D01*
X158496000Y-67056000D02*
X158496000Y-60706000D01*
X153388000Y-74335000D02*
X153388000Y-72164000D01*
%TO.N,PC11*%
X160274000Y-62738000D02*
X161036000Y-61976000D01*
X161036000Y-61976000D02*
X161036000Y-60706000D01*
X153888000Y-72370402D02*
X160274000Y-65984402D01*
X160274000Y-65984402D02*
X160274000Y-62738000D01*
X153888000Y-74335000D02*
X153888000Y-72370402D01*
%TO.N,PC10*%
X160782000Y-66182804D02*
X160782000Y-62992000D01*
X154388000Y-74335000D02*
X154388000Y-72576804D01*
X163068000Y-62230000D02*
X163576000Y-61722000D01*
X161544000Y-62230000D02*
X163068000Y-62230000D01*
X160782000Y-62992000D02*
X161544000Y-62230000D01*
X154388000Y-72576804D02*
X160782000Y-66182804D01*
X163576000Y-61722000D02*
X163576000Y-60706000D01*
%TO.N,PC4*%
X151384000Y-88392000D02*
X148336000Y-91440000D01*
X151387501Y-88078901D02*
X151384000Y-88082401D01*
X151387501Y-85685499D02*
X151387501Y-88078901D01*
X151388000Y-85685000D02*
X151387501Y-85685499D01*
X147828000Y-91440000D02*
X145796000Y-93472000D01*
X151384000Y-88082401D02*
X151384000Y-88392000D01*
X148336000Y-91440000D02*
X147828000Y-91440000D01*
%TO.N,PC5*%
X148336000Y-92202000D02*
X148336000Y-93472000D01*
X151888000Y-88650000D02*
X148336000Y-92202000D01*
X151888000Y-85685000D02*
X151888000Y-88650000D01*
%TO.N,PB0*%
X152388000Y-88912000D02*
X150876000Y-90424000D01*
X152388000Y-85685000D02*
X152388000Y-88912000D01*
X150876000Y-90424000D02*
X150876000Y-93472000D01*
%TO.N,PB1*%
X152888000Y-85685000D02*
X152888000Y-88880000D01*
X152888000Y-88880000D02*
X153416000Y-89408000D01*
X153416000Y-89408000D02*
X153416000Y-93472000D01*
%TO.N,PB2*%
X153388000Y-88618000D02*
X155956000Y-91186000D01*
X153388000Y-85685000D02*
X153388000Y-88618000D01*
X155956000Y-91186000D02*
X155956000Y-93472000D01*
%TO.N,PB3*%
X155956000Y-67818000D02*
X155956000Y-60706000D01*
X152388000Y-71386000D02*
X155956000Y-67818000D01*
X152388000Y-74335000D02*
X152388000Y-71386000D01*
%TO.N,PB4*%
X153416000Y-69596000D02*
X153416000Y-60706000D01*
X151888000Y-71124000D02*
X153416000Y-69596000D01*
X151888000Y-74335000D02*
X151888000Y-71124000D01*
%TO.N,PB6*%
X150888000Y-74335000D02*
X150888000Y-71386000D01*
X150888000Y-71386000D02*
X148336000Y-68834000D01*
X148336000Y-68834000D02*
X148336000Y-60706000D01*
%TO.N,PB7*%
X150388000Y-71648000D02*
X145796000Y-67056000D01*
X150388000Y-74335000D02*
X150388000Y-71648000D01*
X145796000Y-67056000D02*
X145796000Y-60706000D01*
%TO.N,Net-(JP1-Pad1)*%
X145009600Y-65887600D02*
X143093200Y-65887600D01*
X143093200Y-65887600D02*
X143042400Y-65836800D01*
X144971000Y-67247000D02*
X144971000Y-65926200D01*
X144971000Y-65926200D02*
X145009600Y-65887600D01*
X149888000Y-72164000D02*
X144971000Y-67247000D01*
X149888000Y-74335000D02*
X149888000Y-72164000D01*
%TO.N,PB13*%
X161036000Y-84582000D02*
X161036000Y-87884000D01*
X157313000Y-83260000D02*
X159714000Y-83260000D01*
X165100000Y-90932000D02*
X166116000Y-91948000D01*
X166116000Y-91948000D02*
X166116000Y-93472000D01*
X164084000Y-90932000D02*
X165100000Y-90932000D01*
X159714000Y-83260000D02*
X161036000Y-84582000D01*
X161036000Y-87884000D02*
X164084000Y-90932000D01*
%TO.N,PB12*%
X157313000Y-83760000D02*
X157373000Y-83820000D01*
X163576000Y-91186000D02*
X163576000Y-93472000D01*
X159512000Y-83820000D02*
X160528000Y-84836000D01*
X160528000Y-88138000D02*
X163576000Y-91186000D01*
X157373000Y-83820000D02*
X159512000Y-83820000D01*
X160528000Y-84836000D02*
X160528000Y-88138000D01*
%TO.N,PB11*%
X157454655Y-88900000D02*
X161036000Y-92481345D01*
X155194000Y-88900000D02*
X157454655Y-88900000D01*
X154388000Y-85685000D02*
X154388000Y-88094000D01*
X161036000Y-92481345D02*
X161036000Y-93472000D01*
X154388000Y-88094000D02*
X155194000Y-88900000D01*
%TO.N,PB10*%
X153888000Y-85685000D02*
X153888000Y-88356000D01*
X158496000Y-90932000D02*
X158496000Y-93472000D01*
X153888000Y-88356000D02*
X154940000Y-89408000D01*
X156972000Y-89408000D02*
X158496000Y-90932000D01*
X154940000Y-89408000D02*
X156972000Y-89408000D01*
%TO.N,PA7*%
X145796000Y-90932000D02*
X143256000Y-93472000D01*
X150888000Y-85685000D02*
X150888000Y-88014809D01*
X148082000Y-90932000D02*
X145796000Y-90932000D01*
X150888000Y-88014809D02*
X150876000Y-88026809D01*
X150876000Y-88026809D02*
X150876000Y-88138000D01*
X150876000Y-88138000D02*
X148082000Y-90932000D01*
%TO.N,PA6*%
X150387501Y-87808901D02*
X150368000Y-87828401D01*
X150387501Y-85685499D02*
X150387501Y-87808901D01*
X147828000Y-90424000D02*
X143764000Y-90424000D01*
X150388000Y-85685000D02*
X150387501Y-85685499D01*
X143764000Y-90424000D02*
X140716000Y-93472000D01*
X150368000Y-87884000D02*
X147828000Y-90424000D01*
X150368000Y-87828401D02*
X150368000Y-87884000D01*
%TO.N,PA5*%
X149888000Y-87602000D02*
X147574000Y-89916000D01*
X149888000Y-85685000D02*
X149888000Y-87602000D01*
X141732000Y-89916000D02*
X138176000Y-93472000D01*
X147574000Y-89916000D02*
X141732000Y-89916000D01*
%TO.N,PA3*%
X147888000Y-84896000D02*
X147751001Y-84759001D01*
X145364999Y-84759001D02*
X138684000Y-91440000D01*
X138684000Y-91440000D02*
X133858000Y-91440000D01*
X133858000Y-91440000D02*
X133096000Y-92202000D01*
X133096000Y-92202000D02*
X133096000Y-93472000D01*
X147751001Y-84759001D02*
X145364999Y-84759001D01*
X147888000Y-85685000D02*
X147888000Y-84896000D01*
%TO.N,PB5*%
X151388000Y-71179599D02*
X151388000Y-74335000D01*
X151388000Y-71179599D02*
X151102200Y-70893800D01*
X151102200Y-70893800D02*
X150876000Y-70667599D01*
X150876000Y-60706000D02*
X150876000Y-70667600D01*
X150876000Y-70667600D02*
X151102200Y-70893800D01*
%TD*%
M02*
