%TF.GenerationSoftware,KiCad,Pcbnew,(6.0.9)*%
%TF.CreationDate,2022-11-25T11:21:21+01:00*%
%TF.ProjectId,stmf303re_eval_board,73746d66-3330-4337-9265-5f6576616c5f,rev?*%
%TF.SameCoordinates,Original*%
%TF.FileFunction,Legend,Bot*%
%TF.FilePolarity,Positive*%
%FSLAX46Y46*%
G04 Gerber Fmt 4.6, Leading zero omitted, Abs format (unit mm)*
G04 Created by KiCad (PCBNEW (6.0.9)) date 2022-11-25 11:21:21*
%MOMM*%
%LPD*%
G01*
G04 APERTURE LIST*
%ADD10C,0.150000*%
G04 APERTURE END LIST*
D10*
X163494917Y-67945047D02*
X163494917Y-68706952D01*
X171576952Y-68143428D02*
X170815047Y-68143428D01*
X171196000Y-68524380D02*
X171196000Y-67762476D01*
X169060761Y-67334095D02*
X169108380Y-67476952D01*
X169108380Y-67715047D01*
X169060761Y-67810285D01*
X169013142Y-67857904D01*
X168917904Y-67905523D01*
X168822666Y-67905523D01*
X168727428Y-67857904D01*
X168679809Y-67810285D01*
X168632190Y-67715047D01*
X168584571Y-67524571D01*
X168536952Y-67429333D01*
X168489333Y-67381714D01*
X168394095Y-67334095D01*
X168298857Y-67334095D01*
X168203619Y-67381714D01*
X168156000Y-67429333D01*
X168108380Y-67524571D01*
X168108380Y-67762666D01*
X168156000Y-67905523D01*
X168108380Y-68238857D02*
X169108380Y-68476952D01*
X168394095Y-68667428D01*
X169108380Y-68857904D01*
X168108380Y-69096000D01*
X169013142Y-70048380D02*
X169060761Y-70000761D01*
X169108380Y-69857904D01*
X169108380Y-69762666D01*
X169060761Y-69619809D01*
X168965523Y-69524571D01*
X168870285Y-69476952D01*
X168679809Y-69429333D01*
X168536952Y-69429333D01*
X168346476Y-69476952D01*
X168251238Y-69524571D01*
X168156000Y-69619809D01*
X168108380Y-69762666D01*
X168108380Y-69857904D01*
X168156000Y-70000761D01*
X168203619Y-70048380D01*
X169108380Y-70953142D02*
X169108380Y-70476952D01*
X168108380Y-70476952D01*
X169108380Y-71286476D02*
X168108380Y-71286476D01*
X169108380Y-71857904D02*
X168536952Y-71429333D01*
X168108380Y-71857904D02*
X168679809Y-71286476D01*
X166503970Y-67324681D02*
X166551589Y-67467538D01*
X166551589Y-67705633D01*
X166503970Y-67800871D01*
X166456351Y-67848490D01*
X166361113Y-67896109D01*
X166265875Y-67896109D01*
X166170637Y-67848490D01*
X166123018Y-67800871D01*
X166075399Y-67705633D01*
X166027780Y-67515157D01*
X165980161Y-67419919D01*
X165932542Y-67372300D01*
X165837304Y-67324681D01*
X165742066Y-67324681D01*
X165646828Y-67372300D01*
X165599209Y-67419919D01*
X165551589Y-67515157D01*
X165551589Y-67753252D01*
X165599209Y-67896109D01*
X165551589Y-68229443D02*
X166551589Y-68467538D01*
X165837304Y-68658014D01*
X166551589Y-68848490D01*
X165551589Y-69086586D01*
X166551589Y-69467538D02*
X165551589Y-69467538D01*
X165551589Y-69705633D01*
X165599209Y-69848490D01*
X165694447Y-69943729D01*
X165789685Y-69991348D01*
X165980161Y-70038967D01*
X166123018Y-70038967D01*
X166313494Y-69991348D01*
X166408732Y-69943729D01*
X166503970Y-69848490D01*
X166551589Y-69705633D01*
X166551589Y-69467538D01*
X166551589Y-70467538D02*
X165551589Y-70467538D01*
X165551589Y-71134205D02*
X165551589Y-71324681D01*
X165599209Y-71419919D01*
X165694447Y-71515157D01*
X165884923Y-71562776D01*
X166218256Y-71562776D01*
X166408732Y-71515157D01*
X166503970Y-71419919D01*
X166551589Y-71324681D01*
X166551589Y-71134205D01*
X166503970Y-71038967D01*
X166408732Y-70943729D01*
X166218256Y-70896109D01*
X165884923Y-70896109D01*
X165694447Y-70943729D01*
X165599209Y-71038967D01*
X165551589Y-71134205D01*
M02*
